<svg width="14" height="14" viewBox="0 0 14 14" fill="none" xmlns="http://www.w3.org/2000/svg">
<path d="M13.1312 8.34418C14.0592 4.18418 10.4112 0.408181 6.12321 1.12818C3.80321 -0.311819 0.71521 1.32018 0.71521 4.08818C0.71521 4.72818 0.89121 5.33618 1.19521 5.84818C0.34721 10.0242 4.01121 13.7522 8.29921 12.9682C11.3232 14.5682 14.6512 11.3842 13.1312 8.34418ZM9.06721 10.8562C7.94721 11.3202 6.09121 11.3202 4.97121 10.7282C3.37121 9.88018 3.09921 7.96018 4.47521 7.96018C5.51521 7.96018 5.17921 9.17618 6.23521 9.65618C6.71521 9.88018 7.75521 9.89618 8.34721 9.49618C8.93921 9.09618 8.89121 8.47218 8.57121 8.18418C7.72321 7.40018 5.27521 7.70418 4.15521 6.32818C3.67521 5.73618 3.57921 4.68018 4.17121 3.91218C5.21121 2.56818 8.26721 2.48818 9.57921 3.49618C10.7952 4.44018 10.4592 5.67218 9.48321 5.67218C8.31521 5.67218 8.92321 4.13618 7.01921 4.13618C5.64321 4.13618 5.09921 5.11218 6.07521 5.59218C7.38721 6.26418 10.7312 6.04018 10.7312 8.60018C10.7312 9.65618 10.0752 10.4402 9.06721 10.8562Z" fill="white"/>
</svg>
